# xmcd
#
# Track frame offsets:
#	150
#	10059
#	27158
#	37813
#	51284
#	69127
#	87749
#	103648
#	117835
#	132129
#	151340
#	170289
#	181028
#
# Disc length: 2594 seconds
#
# Revision: 0
# Processed by: cddbd v1.5.2PL0 Copyright (c) Steve Scherf et al.
# Submitted via: EasyCDDAExtractor 10.2.0.1
#
DISCID=950a200d
DTITLE=KELYN CAROLYNE - MASCANDO CHICLETE
DYEAR=2004
DGENRE=Pop
TTITLE0=O CARIMBADOR MALUCO
TTITLE1=NEGRO GATO
TTITLE2=SEM TELEFONE
TTITLE3=DOMINIQUE (DOMINIQUE)
TTITLE4=MANHÃS DE SETEMBRO
TTITLE5=ASA MORENA
TTITLE6=CASA DE CHOCOLATE
TTITLE7=MASCANDO CHICLETE
TTITLE8=LINDO BALÃO AZUL
TTITLE9=UM PEDACINHO DO MEU CORAÇÃO
TTITLE10=BARQUINHO
TTITLE11=BATUQUE BRASIL
TTITLE12=O CADERNINHO
EXTD=
EXTT0=
EXTT1=
EXTT2=
EXTT3=
EXTT4=
EXTT5=
EXTT6=
EXTT7=
EXTT8=
EXTT9=
EXTT10=
EXTT11=
EXTT12=
PLAYORDER=
